<?xml version="1.0" standalone="no"?>
<!DOCTYPE svg PUBLIC "-//W3C//DTD SVG 20010904//EN"
 "http://www.w3.org/TR/2001/REC-SVG-20010904/DTD/svg10.dtd">
<svg version="1.0" xmlns="http://www.w3.org/2000/svg"
 width="323.000000pt" height="323.000000pt" viewBox="0 0 323.000000 323.000000"
 preserveAspectRatio="xMidYMid meet">
<metadata>
Created by potrace 1.11, written by Peter Selinger 2001-2013
</metadata>
<g transform="translate(0.000000,323.000000) scale(0.100000,-0.100000)"
fill="#000000" stroke="none">
<path d="M2955 3222 c-11 -2 -59 -17 -107 -33 -168 -55 -380 -174 -636 -356
l-102 -73 -586 -2 -586 -3 -130 -225 c-72 -124 -141 -245 -155 -270 -14 -25
-29 -49 -33 -55 -4 -5 -19 -30 -33 -55 -13 -25 -49 -88 -79 -140 -31 -52 -92
-159 -137 -236 -44 -78 -81 -145 -81 -150 0 -5 28 -56 61 -114 34 -58 73 -125
87 -150 13 -25 40 -71 59 -103 l33 -59 -68 -91 c-102 -137 -224 -322 -296
-452 -161 -287 -203 -494 -121 -589 35 -41 82 -55 166 -51 127 6 304 78 536
218 112 67 356 235 361 249 2 4 261 8 575 8 l572 0 87 153 c47 83 159 278 248
432 89 154 172 298 185 320 12 22 46 81 75 130 29 50 53 95 53 100 0 6 -48 92
-107 192 -58 100 -108 188 -111 195 -3 8 18 45 48 83 206 269 390 582 452 769
62 186 36 318 -70 353 -30 10 -123 13 -160 5z m-441 -615 c-1 -35 -59 -167
-73 -167 -7 0 -84 135 -83 147 1 18 103 63 137 60 16 -2 20 -9 19 -40z m-1777
-1766 c18 -31 32 -59 33 -62 1 -13 -117 -62 -150 -63 -34 -1 -35 0 -32 34 4
36 19 74 61 149 l25 44 15 -23 c9 -12 30 -48 48 -79z"/>
</g>
</svg>
